<mxfile host="app.diagrams.net" modified="2024-05-07T10:50:27.404Z" agent="Mozilla/5.0 (Windows NT 10.0; Win64; x64) AppleWebKit/537.36 (KHTML, like Gecko) Chrome/109.0.0.0 Safari/537.36" etag="kZ8Rxm-XrXHvToNUx2iK" version="24.3.1" type="google">
  <diagram name="Страница — 1" id="L74SnRRmwq9o9S75lbGC">
    <mxGraphModel grid="1" page="1" gridSize="10" guides="1" tooltips="1" connect="1" arrows="1" fold="1" pageScale="1" pageWidth="827" pageHeight="1169" math="0" shadow="0">
      <root>
        <mxCell id="0" />
        <mxCell id="1" parent="0" />
        <mxCell id="Topvc_GikGIYlu4mbmXo-44" value="&lt;div style=&quot;&quot;&gt;&lt;span style=&quot;font-size: 29px; background-color: initial;&quot;&gt;3 этаж&lt;/span&gt;&lt;/div&gt;" style="rounded=0;whiteSpace=wrap;html=1;dashed=1;verticalAlign=top;fontFamily=Times New Roman;align=right;" vertex="1" parent="1">
          <mxGeometry x="510" y="882" width="550" height="200" as="geometry" />
        </mxCell>
        <mxCell id="Topvc_GikGIYlu4mbmXo-43" value="&lt;font style=&quot;font-size: 29px;&quot;&gt;2 этаж&lt;/font&gt;" style="rounded=0;whiteSpace=wrap;html=1;dashed=1;verticalAlign=top;fontFamily=Times New Roman;" vertex="1" parent="1">
          <mxGeometry x="50" y="882" width="450" height="200" as="geometry" />
        </mxCell>
        <mxCell id="Topvc_GikGIYlu4mbmXo-42" value="&lt;font style=&quot;font-size: 30px;&quot; face=&quot;Times New Roman&quot;&gt;1 этаж&lt;/font&gt;" style="rounded=0;whiteSpace=wrap;html=1;dashed=1;" vertex="1" parent="1">
          <mxGeometry x="-290" y="351.5" width="330" height="728.5" as="geometry" />
        </mxCell>
        <mxCell id="Topvc_GikGIYlu4mbmXo-4" value="&lt;font style=&quot;font-size: 21px;&quot; face=&quot;Times New Roman&quot;&gt;Fw&lt;/font&gt;" style="rounded=0;whiteSpace=wrap;html=1;dashed=1;verticalAlign=top;align=left;" vertex="1" parent="1">
          <mxGeometry x="280" y="408" width="166" height="102" as="geometry" />
        </mxCell>
        <mxCell id="Topvc_GikGIYlu4mbmXo-2" value="&lt;font style=&quot;font-size: 21px;&quot; face=&quot;Times New Roman&quot;&gt;ISP&lt;/font&gt;" style="rounded=0;whiteSpace=wrap;html=1;dashed=1;verticalAlign=top;align=left;" vertex="1" parent="1">
          <mxGeometry x="280" y="270" width="160" height="70" as="geometry" />
        </mxCell>
        <mxCell id="QaenVO4siS9VH7mCYYPl-3" value="" style="shape=mxgraph.cisco.routers.wireless_router;sketch=0;html=1;pointerEvents=1;dashed=0;fillColor=#036897;strokeColor=#ffffff;strokeWidth=2;verticalLabelPosition=bottom;verticalAlign=top;align=center;outlineConnect=0;" vertex="1" parent="1">
          <mxGeometry x="-60" y="1000" width="50" height="40" as="geometry" />
        </mxCell>
        <mxCell id="QaenVO4siS9VH7mCYYPl-4" value="" style="shape=mxgraph.cisco.switches.workgroup_switch;sketch=0;html=1;pointerEvents=1;dashed=0;fillColor=#036897;strokeColor=#ffffff;strokeWidth=2;verticalLabelPosition=bottom;verticalAlign=top;align=center;outlineConnect=0;" vertex="1" parent="1">
          <mxGeometry x="20" y="820" width="60" height="30" as="geometry" />
        </mxCell>
        <mxCell id="QaenVO4siS9VH7mCYYPl-14" value="" style="shape=mxgraph.cisco.routers.router;sketch=0;html=1;pointerEvents=1;dashed=0;fillColor=#036897;strokeColor=#ffffff;strokeWidth=2;verticalLabelPosition=bottom;verticalAlign=top;align=center;outlineConnect=0;" vertex="1" parent="1">
          <mxGeometry x="340" y="300" width="50" height="30" as="geometry" />
        </mxCell>
        <mxCell id="QaenVO4siS9VH7mCYYPl-16" value="" style="shape=mxgraph.cisco.switches.workgroup_switch;sketch=0;html=1;pointerEvents=1;dashed=0;fillColor=#036897;strokeColor=#ffffff;strokeWidth=2;verticalLabelPosition=bottom;verticalAlign=top;align=center;outlineConnect=0;" vertex="1" parent="1">
          <mxGeometry x="180" y="820" width="60" height="30" as="geometry" />
        </mxCell>
        <mxCell id="QaenVO4siS9VH7mCYYPl-17" value="" style="shape=mxgraph.cisco.switches.workgroup_switch;sketch=0;html=1;pointerEvents=1;dashed=0;fillColor=#036897;strokeColor=#ffffff;strokeWidth=2;verticalLabelPosition=bottom;verticalAlign=top;align=center;outlineConnect=0;" vertex="1" parent="1">
          <mxGeometry x="340" y="820" width="60" height="30" as="geometry" />
        </mxCell>
        <mxCell id="QaenVO4siS9VH7mCYYPl-18" value="" style="shape=mxgraph.cisco.switches.workgroup_switch;sketch=0;html=1;pointerEvents=1;dashed=0;fillColor=#036897;strokeColor=#ffffff;strokeWidth=2;verticalLabelPosition=bottom;verticalAlign=top;align=center;outlineConnect=0;" vertex="1" parent="1">
          <mxGeometry x="500" y="820" width="60" height="30" as="geometry" />
        </mxCell>
        <mxCell id="QaenVO4siS9VH7mCYYPl-19" value="" style="shape=mxgraph.cisco.switches.workgroup_switch;sketch=0;html=1;pointerEvents=1;dashed=0;fillColor=#036897;strokeColor=#ffffff;strokeWidth=2;verticalLabelPosition=bottom;verticalAlign=top;align=center;outlineConnect=0;" vertex="1" parent="1">
          <mxGeometry x="670" y="820" width="60" height="30" as="geometry" />
        </mxCell>
        <mxCell id="QaenVO4siS9VH7mCYYPl-20" value="" style="shape=mxgraph.cisco.routers.wireless_router;sketch=0;html=1;pointerEvents=1;dashed=0;fillColor=#036897;strokeColor=#ffffff;strokeWidth=2;verticalLabelPosition=bottom;verticalAlign=top;align=center;outlineConnect=0;" vertex="1" parent="1">
          <mxGeometry x="790" y="997" width="50" height="40" as="geometry" />
        </mxCell>
        <mxCell id="QaenVO4siS9VH7mCYYPl-21" value="" style="shape=mxgraph.cisco.routers.wireless_router;sketch=0;html=1;pointerEvents=1;dashed=0;fillColor=#036897;strokeColor=#ffffff;strokeWidth=2;verticalLabelPosition=bottom;verticalAlign=top;align=center;outlineConnect=0;" vertex="1" parent="1">
          <mxGeometry x="430" y="957" width="50" height="40" as="geometry" />
        </mxCell>
        <mxCell id="QaenVO4siS9VH7mCYYPl-34" value="" style="endArrow=none;html=1;rounded=0;shape=link;" edge="1" parent="1" source="SH7mHOmY0YoXLgwf_8YF-17" target="mweBj8knnKhivHX_sm4Q-7">
          <mxGeometry width="50" height="50" relative="1" as="geometry">
            <mxPoint x="430" y="640" as="sourcePoint" />
            <mxPoint x="480" y="590" as="targetPoint" />
          </mxGeometry>
        </mxCell>
        <mxCell id="QaenVO4siS9VH7mCYYPl-35" value="" style="endArrow=none;html=1;rounded=0;shape=link;" edge="1" parent="1" source="mweBj8knnKhivHX_sm4Q-6" target="SH7mHOmY0YoXLgwf_8YF-17">
          <mxGeometry width="50" height="50" relative="1" as="geometry">
            <mxPoint x="210" y="600" as="sourcePoint" />
            <mxPoint x="260" y="550" as="targetPoint" />
          </mxGeometry>
        </mxCell>
        <mxCell id="QaenVO4siS9VH7mCYYPl-38" style="edgeStyle=orthogonalEdgeStyle;rounded=0;orthogonalLoop=1;jettySize=auto;html=1;exitX=0.5;exitY=1;exitDx=0;exitDy=0;exitPerimeter=0;" edge="1" parent="1" source="QaenVO4siS9VH7mCYYPl-21" target="QaenVO4siS9VH7mCYYPl-21">
          <mxGeometry relative="1" as="geometry" />
        </mxCell>
        <mxCell id="QaenVO4siS9VH7mCYYPl-40" value="" style="endArrow=none;html=1;rounded=0;shape=link;" edge="1" parent="1" source="mweBj8knnKhivHX_sm4Q-8" target="SH7mHOmY0YoXLgwf_8YF-17">
          <mxGeometry width="50" height="50" relative="1" as="geometry">
            <mxPoint x="230" y="600" as="sourcePoint" />
            <mxPoint x="280" y="550" as="targetPoint" />
          </mxGeometry>
        </mxCell>
        <mxCell id="QaenVO4siS9VH7mCYYPl-41" value="" style="endArrow=none;html=1;rounded=0;entryX=0.5;entryY=1;entryDx=0;entryDy=0;entryPerimeter=0;" edge="1" parent="1" source="QaenVO4siS9VH7mCYYPl-4" target="hCA_CuVUp_1DTXwcT2jg-3">
          <mxGeometry width="50" height="50" relative="1" as="geometry">
            <mxPoint x="-10" y="1008.7406855439642" as="sourcePoint" />
            <mxPoint x="5" y="960" as="targetPoint" />
          </mxGeometry>
        </mxCell>
        <mxCell id="QaenVO4siS9VH7mCYYPl-42" value="" style="endArrow=none;html=1;rounded=0;" edge="1" parent="1" source="QaenVO4siS9VH7mCYYPl-4" target="hCA_CuVUp_1DTXwcT2jg-2">
          <mxGeometry width="50" height="50" relative="1" as="geometry">
            <mxPoint x="-10" y="1015" as="sourcePoint" />
            <mxPoint x="-79.25" y="980" as="targetPoint" />
          </mxGeometry>
        </mxCell>
        <mxCell id="QaenVO4siS9VH7mCYYPl-43" value="" style="endArrow=none;html=1;rounded=0;" edge="1" parent="1" source="QaenVO4siS9VH7mCYYPl-3" target="QaenVO4siS9VH7mCYYPl-4">
          <mxGeometry width="50" height="50" relative="1" as="geometry">
            <mxPoint x="160" y="990" as="sourcePoint" />
            <mxPoint x="7.77173913043498" y="1000" as="targetPoint" />
          </mxGeometry>
        </mxCell>
        <mxCell id="QaenVO4siS9VH7mCYYPl-44" value="" style="endArrow=none;html=1;rounded=0;exitX=0.5;exitY=0.01;exitDx=0;exitDy=0;exitPerimeter=0;" edge="1" parent="1" source="hCA_CuVUp_1DTXwcT2jg-4" target="QaenVO4siS9VH7mCYYPl-16">
          <mxGeometry width="50" height="50" relative="1" as="geometry">
            <mxPoint x="140" y="940" as="sourcePoint" />
            <mxPoint x="310" y="840" as="targetPoint" />
          </mxGeometry>
        </mxCell>
        <mxCell id="QaenVO4siS9VH7mCYYPl-45" value="" style="endArrow=none;html=1;rounded=0;entryX=0.5;entryY=0.98;entryDx=0;entryDy=0;entryPerimeter=0;" edge="1" parent="1" source="hCA_CuVUp_1DTXwcT2jg-5" target="QaenVO4siS9VH7mCYYPl-16">
          <mxGeometry width="50" height="50" relative="1" as="geometry">
            <mxPoint x="335" y="929.9999999999999" as="sourcePoint" />
            <mxPoint x="420" y="720" as="targetPoint" />
          </mxGeometry>
        </mxCell>
        <mxCell id="QaenVO4siS9VH7mCYYPl-46" value="" style="endArrow=none;html=1;rounded=0;exitX=0.5;exitY=0.01;exitDx=0;exitDy=0;exitPerimeter=0;" edge="1" parent="1" source="hCA_CuVUp_1DTXwcT2jg-6" target="QaenVO4siS9VH7mCYYPl-17">
          <mxGeometry width="50" height="50" relative="1" as="geometry">
            <mxPoint x="380" y="780" as="sourcePoint" />
            <mxPoint x="430" y="730" as="targetPoint" />
          </mxGeometry>
        </mxCell>
        <mxCell id="QaenVO4siS9VH7mCYYPl-47" value="" style="endArrow=none;html=1;rounded=0;entryX=0.5;entryY=0.98;entryDx=0;entryDy=0;entryPerimeter=0;" edge="1" parent="1" source="hCA_CuVUp_1DTXwcT2jg-7" target="QaenVO4siS9VH7mCYYPl-17">
          <mxGeometry width="50" height="50" relative="1" as="geometry">
            <mxPoint x="508.67088607594906" y="929.9999999999999" as="sourcePoint" />
            <mxPoint x="470" y="830" as="targetPoint" />
          </mxGeometry>
        </mxCell>
        <mxCell id="QaenVO4siS9VH7mCYYPl-48" value="" style="endArrow=none;html=1;rounded=0;exitX=0.5;exitY=0.01;exitDx=0;exitDy=0;exitPerimeter=0;entryX=0.5;entryY=0.98;entryDx=0;entryDy=0;entryPerimeter=0;" edge="1" parent="1" source="hCA_CuVUp_1DTXwcT2jg-8" target="QaenVO4siS9VH7mCYYPl-18">
          <mxGeometry width="50" height="50" relative="1" as="geometry">
            <mxPoint x="400" y="800" as="sourcePoint" />
            <mxPoint x="450" y="750" as="targetPoint" />
          </mxGeometry>
        </mxCell>
        <mxCell id="QaenVO4siS9VH7mCYYPl-49" value="" style="endArrow=none;html=1;rounded=0;exitX=0.5;exitY=0.01;exitDx=0;exitDy=0;exitPerimeter=0;entryX=0.87;entryY=0.74;entryDx=0;entryDy=0;entryPerimeter=0;" edge="1" parent="1" source="hCA_CuVUp_1DTXwcT2jg-9" target="QaenVO4siS9VH7mCYYPl-18">
          <mxGeometry width="50" height="50" relative="1" as="geometry">
            <mxPoint x="410" y="810" as="sourcePoint" />
            <mxPoint x="460" y="760" as="targetPoint" />
          </mxGeometry>
        </mxCell>
        <mxCell id="QaenVO4siS9VH7mCYYPl-50" value="" style="endArrow=none;html=1;rounded=0;" edge="1" parent="1" source="hCA_CuVUp_1DTXwcT2jg-10" target="QaenVO4siS9VH7mCYYPl-19">
          <mxGeometry width="50" height="50" relative="1" as="geometry">
            <mxPoint x="330" y="880" as="sourcePoint" />
            <mxPoint x="380" y="830" as="targetPoint" />
          </mxGeometry>
        </mxCell>
        <mxCell id="QaenVO4siS9VH7mCYYPl-51" value="" style="endArrow=none;html=1;rounded=0;" edge="1" parent="1" source="QaenVO4siS9VH7mCYYPl-19" target="hCA_CuVUp_1DTXwcT2jg-11">
          <mxGeometry width="50" height="50" relative="1" as="geometry">
            <mxPoint x="340" y="890" as="sourcePoint" />
            <mxPoint x="930" y="800" as="targetPoint" />
          </mxGeometry>
        </mxCell>
        <mxCell id="QaenVO4siS9VH7mCYYPl-52" value="" style="endArrow=none;html=1;rounded=0;" edge="1" parent="1" source="QaenVO4siS9VH7mCYYPl-20" target="QaenVO4siS9VH7mCYYPl-19">
          <mxGeometry width="50" height="50" relative="1" as="geometry">
            <mxPoint x="350" y="900" as="sourcePoint" />
            <mxPoint x="400" y="850" as="targetPoint" />
          </mxGeometry>
        </mxCell>
        <mxCell id="hCA_CuVUp_1DTXwcT2jg-2" value="" style="shape=mxgraph.cisco.computers_and_peripherals.macintosh;sketch=0;html=1;pointerEvents=1;dashed=0;fillColor=#036897;strokeColor=#ffffff;strokeWidth=2;verticalLabelPosition=bottom;verticalAlign=top;align=center;outlineConnect=0;" vertex="1" parent="1">
          <mxGeometry x="-210" y="943" width="64.5" height="37" as="geometry" />
        </mxCell>
        <mxCell id="hCA_CuVUp_1DTXwcT2jg-3" value="" style="shape=mxgraph.cisco.computers_and_peripherals.macintosh;sketch=0;html=1;pointerEvents=1;dashed=0;fillColor=#036897;strokeColor=#ffffff;strokeWidth=2;verticalLabelPosition=bottom;verticalAlign=top;align=center;outlineConnect=0;" vertex="1" parent="1">
          <mxGeometry x="-164.5" y="990" width="64.5" height="37" as="geometry" />
        </mxCell>
        <mxCell id="hCA_CuVUp_1DTXwcT2jg-4" value="" style="shape=mxgraph.cisco.computers_and_peripherals.macintosh;sketch=0;html=1;pointerEvents=1;dashed=0;fillColor=#036897;strokeColor=#ffffff;strokeWidth=2;verticalLabelPosition=bottom;verticalAlign=top;align=center;outlineConnect=0;" vertex="1" parent="1">
          <mxGeometry x="60" y="960" width="64.5" height="37" as="geometry" />
        </mxCell>
        <mxCell id="hCA_CuVUp_1DTXwcT2jg-5" value="" style="shape=mxgraph.cisco.computers_and_peripherals.macintosh;sketch=0;html=1;pointerEvents=1;dashed=0;fillColor=#036897;strokeColor=#ffffff;strokeWidth=2;verticalLabelPosition=bottom;verticalAlign=top;align=center;outlineConnect=0;" vertex="1" parent="1">
          <mxGeometry x="150" y="961.5" width="64.5" height="37" as="geometry" />
        </mxCell>
        <mxCell id="hCA_CuVUp_1DTXwcT2jg-6" value="" style="shape=mxgraph.cisco.computers_and_peripherals.macintosh;sketch=0;html=1;pointerEvents=1;dashed=0;fillColor=#036897;strokeColor=#ffffff;strokeWidth=2;verticalLabelPosition=bottom;verticalAlign=top;align=center;outlineConnect=0;" vertex="1" parent="1">
          <mxGeometry x="260" y="963" width="64.5" height="37" as="geometry" />
        </mxCell>
        <mxCell id="hCA_CuVUp_1DTXwcT2jg-7" value="" style="shape=mxgraph.cisco.computers_and_peripherals.macintosh;sketch=0;html=1;pointerEvents=1;dashed=0;fillColor=#036897;strokeColor=#ffffff;strokeWidth=2;verticalLabelPosition=bottom;verticalAlign=top;align=center;outlineConnect=0;" vertex="1" parent="1">
          <mxGeometry x="346" y="963" width="64.5" height="37" as="geometry" />
        </mxCell>
        <mxCell id="hCA_CuVUp_1DTXwcT2jg-8" value="" style="shape=mxgraph.cisco.computers_and_peripherals.macintosh;sketch=0;html=1;pointerEvents=1;dashed=0;fillColor=#036897;strokeColor=#ffffff;strokeWidth=2;verticalLabelPosition=bottom;verticalAlign=top;align=center;outlineConnect=0;" vertex="1" parent="1">
          <mxGeometry x="530" y="963" width="64.5" height="37" as="geometry" />
        </mxCell>
        <mxCell id="hCA_CuVUp_1DTXwcT2jg-9" value="" style="shape=mxgraph.cisco.computers_and_peripherals.macintosh;sketch=0;html=1;pointerEvents=1;dashed=0;fillColor=#036897;strokeColor=#ffffff;strokeWidth=2;verticalLabelPosition=bottom;verticalAlign=top;align=center;outlineConnect=0;" vertex="1" parent="1">
          <mxGeometry x="630" y="963" width="64.5" height="37" as="geometry" />
        </mxCell>
        <mxCell id="hCA_CuVUp_1DTXwcT2jg-10" value="" style="shape=mxgraph.cisco.computers_and_peripherals.macintosh;sketch=0;html=1;pointerEvents=1;dashed=0;fillColor=#036897;strokeColor=#ffffff;strokeWidth=2;verticalLabelPosition=bottom;verticalAlign=top;align=center;outlineConnect=0;" vertex="1" parent="1">
          <mxGeometry x="954.5" y="926" width="64.5" height="37" as="geometry" />
        </mxCell>
        <mxCell id="hCA_CuVUp_1DTXwcT2jg-11" value="" style="shape=mxgraph.cisco.computers_and_peripherals.macintosh;sketch=0;html=1;pointerEvents=1;dashed=0;fillColor=#036897;strokeColor=#ffffff;strokeWidth=2;verticalLabelPosition=bottom;verticalAlign=top;align=center;outlineConnect=0;" vertex="1" parent="1">
          <mxGeometry x="890" y="981.5" width="64.5" height="37" as="geometry" />
        </mxCell>
        <mxCell id="SH7mHOmY0YoXLgwf_8YF-3" value="" style="endArrow=none;html=1;rounded=0;" edge="1" parent="1" source="QaenVO4siS9VH7mCYYPl-21" target="QaenVO4siS9VH7mCYYPl-17">
          <mxGeometry width="50" height="50" relative="1" as="geometry">
            <mxPoint x="522" y="943" as="sourcePoint" />
            <mxPoint x="490" y="849" as="targetPoint" />
          </mxGeometry>
        </mxCell>
        <mxCell id="SH7mHOmY0YoXLgwf_8YF-6" value="" style="shape=mxgraph.cisco.switches.workgroup_switch;sketch=0;html=1;pointerEvents=1;dashed=0;fillColor=#036897;strokeColor=#ffffff;strokeWidth=2;verticalLabelPosition=bottom;verticalAlign=top;align=center;outlineConnect=0;" vertex="1" parent="1">
          <mxGeometry x="-40" y="558" width="60" height="30" as="geometry" />
        </mxCell>
        <mxCell id="SH7mHOmY0YoXLgwf_8YF-9" value="" style="endArrow=none;html=1;rounded=0;shape=link;" edge="1" parent="1" source="Topvc_GikGIYlu4mbmXo-9" target="SH7mHOmY0YoXLgwf_8YF-6">
          <mxGeometry width="50" height="50" relative="1" as="geometry">
            <mxPoint x="850" y="630" as="sourcePoint" />
            <mxPoint x="900" y="580" as="targetPoint" />
          </mxGeometry>
        </mxCell>
        <mxCell id="SH7mHOmY0YoXLgwf_8YF-10" value="" style="shape=mxgraph.cisco.servers.file_server;sketch=0;html=1;pointerEvents=1;dashed=0;fillColor=#036897;strokeColor=#ffffff;strokeWidth=2;verticalLabelPosition=bottom;verticalAlign=top;align=center;outlineConnect=0;" vertex="1" parent="1">
          <mxGeometry x="-207.5" y="490" width="43" height="58" as="geometry" />
        </mxCell>
        <mxCell id="SH7mHOmY0YoXLgwf_8YF-11" value="" style="shape=mxgraph.cisco.servers.file_server;sketch=0;html=1;pointerEvents=1;dashed=0;fillColor=#036897;strokeColor=#ffffff;strokeWidth=2;verticalLabelPosition=bottom;verticalAlign=top;align=center;outlineConnect=0;" vertex="1" parent="1">
          <mxGeometry x="-130" y="408" width="43" height="58" as="geometry" />
        </mxCell>
        <mxCell id="SH7mHOmY0YoXLgwf_8YF-12" value="" style="shape=mxgraph.cisco.servers.file_server;sketch=0;html=1;pointerEvents=1;dashed=0;fillColor=#036897;strokeColor=#ffffff;strokeWidth=2;verticalLabelPosition=bottom;verticalAlign=top;align=center;outlineConnect=0;" vertex="1" parent="1">
          <mxGeometry x="-207.5" y="585" width="43" height="58" as="geometry" />
        </mxCell>
        <mxCell id="SH7mHOmY0YoXLgwf_8YF-13" value="" style="endArrow=none;html=1;rounded=0;" edge="1" parent="1" source="SH7mHOmY0YoXLgwf_8YF-6" target="SH7mHOmY0YoXLgwf_8YF-10">
          <mxGeometry width="50" height="50" relative="1" as="geometry">
            <mxPoint x="-7" y="615" as="sourcePoint" />
            <mxPoint x="43" y="565" as="targetPoint" />
          </mxGeometry>
        </mxCell>
        <mxCell id="SH7mHOmY0YoXLgwf_8YF-14" value="" style="endArrow=none;html=1;rounded=0;" edge="1" parent="1" source="SH7mHOmY0YoXLgwf_8YF-6" target="SH7mHOmY0YoXLgwf_8YF-11">
          <mxGeometry width="50" height="50" relative="1" as="geometry">
            <mxPoint x="-37" y="605" as="sourcePoint" />
            <mxPoint x="13" y="555" as="targetPoint" />
          </mxGeometry>
        </mxCell>
        <mxCell id="SH7mHOmY0YoXLgwf_8YF-15" value="" style="endArrow=none;html=1;rounded=0;" edge="1" parent="1" source="SH7mHOmY0YoXLgwf_8YF-6" target="SH7mHOmY0YoXLgwf_8YF-12">
          <mxGeometry width="50" height="50" relative="1" as="geometry">
            <mxPoint x="-27" y="615" as="sourcePoint" />
            <mxPoint x="23" y="565" as="targetPoint" />
          </mxGeometry>
        </mxCell>
        <mxCell id="SH7mHOmY0YoXLgwf_8YF-17" value="" style="shape=mxgraph.cisco.switches.workgroup_switch;sketch=0;html=1;pointerEvents=1;dashed=0;fillColor=#036897;strokeColor=#ffffff;strokeWidth=2;verticalLabelPosition=bottom;verticalAlign=top;align=center;outlineConnect=0;" vertex="1" parent="1">
          <mxGeometry x="336" y="560" width="60" height="30" as="geometry" />
        </mxCell>
        <mxCell id="SH7mHOmY0YoXLgwf_8YF-28" value="" style="endArrow=none;html=1;rounded=0;shape=link;" edge="1" parent="1" source="SH7mHOmY0YoXLgwf_8YF-17" target="mweBj8knnKhivHX_sm4Q-1">
          <mxGeometry width="50" height="50" relative="1" as="geometry">
            <mxPoint x="230" y="550" as="sourcePoint" />
            <mxPoint x="366" y="500" as="targetPoint" />
          </mxGeometry>
        </mxCell>
        <mxCell id="SH7mHOmY0YoXLgwf_8YF-29" value="" style="endArrow=none;html=1;rounded=0;shape=link;" edge="1" parent="1" source="mweBj8knnKhivHX_sm4Q-1" target="QaenVO4siS9VH7mCYYPl-14">
          <mxGeometry width="50" height="50" relative="1" as="geometry">
            <mxPoint x="366" y="440" as="sourcePoint" />
            <mxPoint x="280" y="430" as="targetPoint" />
          </mxGeometry>
        </mxCell>
        <mxCell id="mweBj8knnKhivHX_sm4Q-1" value="" style="shape=mxgraph.cisco.controllers_and_modules.firewall_service_module_(fwsm);sketch=0;html=1;pointerEvents=1;dashed=0;fillColor=#036897;strokeColor=#ffffff;strokeWidth=2;verticalLabelPosition=bottom;verticalAlign=top;align=center;outlineConnect=0;" vertex="1" parent="1">
          <mxGeometry x="340.5" y="428" width="50.5" height="72" as="geometry" />
        </mxCell>
        <mxCell id="mweBj8knnKhivHX_sm4Q-3" value="&lt;a style=&quot;box-sizing: border-box; transition: all 0.1s ease-in-out 0s; text-decoration-line: none; outline: 0px; text-align: left; white-space: normal;&quot; rel=&quot;noopener&quot; target=&quot;_blank&quot; href=&quot;https://encyclopedia.kaspersky.ru/glossary/active-directory/&quot;&gt;&lt;font face=&quot;Times New Roman&quot; style=&quot;font-size: 14px;&quot; color=&quot;#000000&quot;&gt;Active Directory&lt;/font&gt;&lt;/a&gt;" style="text;html=1;align=center;verticalAlign=middle;resizable=0;points=[];autosize=1;strokeColor=none;fillColor=none;" vertex="1" parent="1">
          <mxGeometry x="-249.5" y="650" width="120" height="30" as="geometry" />
        </mxCell>
        <mxCell id="mweBj8knnKhivHX_sm4Q-4" value="&lt;font face=&quot;Times New Roman&quot;&gt;DHCP&lt;/font&gt;" style="text;html=1;align=center;verticalAlign=middle;resizable=0;points=[];autosize=1;strokeColor=none;fillColor=none;" vertex="1" parent="1">
          <mxGeometry x="-270" y="525" width="60" height="30" as="geometry" />
        </mxCell>
        <mxCell id="mweBj8knnKhivHX_sm4Q-5" value="MySQL&lt;div&gt;Wed-server&lt;/div&gt;&lt;div&gt;&lt;br&gt;&lt;/div&gt;" style="text;html=1;align=center;verticalAlign=middle;resizable=0;points=[];autosize=1;strokeColor=none;fillColor=none;" vertex="1" parent="1">
          <mxGeometry x="-90" y="368" width="90" height="60" as="geometry" />
        </mxCell>
        <mxCell id="mweBj8knnKhivHX_sm4Q-6" value="" style="shape=mxgraph.cisco.switches.workgroup_switch;sketch=0;html=1;pointerEvents=1;dashed=0;fillColor=#036897;strokeColor=#ffffff;strokeWidth=2;verticalLabelPosition=bottom;verticalAlign=top;align=center;outlineConnect=0;" vertex="1" parent="1">
          <mxGeometry x="200" y="650" width="60" height="30" as="geometry" />
        </mxCell>
        <mxCell id="mweBj8knnKhivHX_sm4Q-7" value="" style="shape=mxgraph.cisco.switches.workgroup_switch;sketch=0;html=1;pointerEvents=1;dashed=0;fillColor=#036897;strokeColor=#ffffff;strokeWidth=2;verticalLabelPosition=bottom;verticalAlign=top;align=center;outlineConnect=0;" vertex="1" parent="1">
          <mxGeometry x="335.75" y="690" width="60" height="30" as="geometry" />
        </mxCell>
        <mxCell id="mweBj8knnKhivHX_sm4Q-8" value="" style="shape=mxgraph.cisco.switches.workgroup_switch;sketch=0;html=1;pointerEvents=1;dashed=0;fillColor=#036897;strokeColor=#ffffff;strokeWidth=2;verticalLabelPosition=bottom;verticalAlign=top;align=center;outlineConnect=0;" vertex="1" parent="1">
          <mxGeometry x="470" y="650" width="60" height="30" as="geometry" />
        </mxCell>
        <mxCell id="mweBj8knnKhivHX_sm4Q-10" value="" style="endArrow=none;html=1;rounded=0;shape=link;" edge="1" parent="1" source="mweBj8knnKhivHX_sm4Q-6" target="mweBj8knnKhivHX_sm4Q-8">
          <mxGeometry width="50" height="50" relative="1" as="geometry">
            <mxPoint x="-190" y="700" as="sourcePoint" />
            <mxPoint x="-140" y="650" as="targetPoint" />
          </mxGeometry>
        </mxCell>
        <mxCell id="mweBj8knnKhivHX_sm4Q-12" value="" style="endArrow=none;html=1;rounded=0;shape=link;" edge="1" parent="1" source="mweBj8knnKhivHX_sm4Q-7" target="mweBj8knnKhivHX_sm4Q-8">
          <mxGeometry width="50" height="50" relative="1" as="geometry">
            <mxPoint x="-130" y="710" as="sourcePoint" />
            <mxPoint x="-80" y="660" as="targetPoint" />
          </mxGeometry>
        </mxCell>
        <mxCell id="mweBj8knnKhivHX_sm4Q-23" value="&lt;font style=&quot;font-size: 14px;&quot; face=&quot;Times New Roman&quot;&gt;ISP1&lt;/font&gt;" style="text;html=1;align=center;verticalAlign=middle;resizable=0;points=[];autosize=1;strokeColor=none;fillColor=none;" vertex="1" parent="1">
          <mxGeometry x="391" y="300" width="50" height="30" as="geometry" />
        </mxCell>
        <mxCell id="mweBj8knnKhivHX_sm4Q-24" value="&lt;font face=&quot;Times New Roman&quot; style=&quot;font-size: 14px;&quot;&gt;Fw1&lt;/font&gt;" style="text;html=1;align=center;verticalAlign=middle;resizable=0;points=[];autosize=1;strokeColor=none;fillColor=none;" vertex="1" parent="1">
          <mxGeometry x="395" y="448" width="50" height="30" as="geometry" />
        </mxCell>
        <mxCell id="mweBj8knnKhivHX_sm4Q-25" value="Sw1" style="text;html=1;align=center;verticalAlign=middle;resizable=0;points=[];autosize=1;strokeColor=none;fillColor=none;" vertex="1" parent="1">
          <mxGeometry x="395" y="558" width="50" height="30" as="geometry" />
        </mxCell>
        <mxCell id="mweBj8knnKhivHX_sm4Q-27" value="Sw3" style="text;html=1;align=center;verticalAlign=middle;resizable=0;points=[];autosize=1;strokeColor=none;fillColor=none;" vertex="1" parent="1">
          <mxGeometry x="150" y="650" width="50" height="30" as="geometry" />
        </mxCell>
        <mxCell id="mweBj8knnKhivHX_sm4Q-28" value="Sw4" style="text;html=1;align=center;verticalAlign=middle;resizable=0;points=[];autosize=1;strokeColor=none;fillColor=none;" vertex="1" parent="1">
          <mxGeometry x="285.75" y="700" width="50" height="30" as="geometry" />
        </mxCell>
        <mxCell id="mweBj8knnKhivHX_sm4Q-29" value="Sw5" style="text;html=1;align=center;verticalAlign=middle;resizable=0;points=[];autosize=1;strokeColor=none;fillColor=none;" vertex="1" parent="1">
          <mxGeometry x="457" y="680" width="50" height="30" as="geometry" />
        </mxCell>
        <mxCell id="mweBj8knnKhivHX_sm4Q-30" value="Sw2" style="text;html=1;align=center;verticalAlign=middle;resizable=0;points=[];autosize=1;strokeColor=none;fillColor=none;" vertex="1" parent="1">
          <mxGeometry x="-35" y="588" width="50" height="30" as="geometry" />
        </mxCell>
        <mxCell id="mweBj8knnKhivHX_sm4Q-31" value="Sw6" style="text;html=1;align=center;verticalAlign=middle;resizable=0;points=[];autosize=1;strokeColor=none;fillColor=none;" vertex="1" parent="1">
          <mxGeometry x="74.5" y="810" width="50" height="30" as="geometry" />
        </mxCell>
        <mxCell id="mweBj8knnKhivHX_sm4Q-32" value="Sw7" style="text;html=1;align=center;verticalAlign=middle;resizable=0;points=[];autosize=1;strokeColor=none;fillColor=none;" vertex="1" parent="1">
          <mxGeometry x="235.75" y="810" width="50" height="30" as="geometry" />
        </mxCell>
        <mxCell id="mweBj8knnKhivHX_sm4Q-33" value="Sw8" style="text;html=1;align=center;verticalAlign=middle;resizable=0;points=[];autosize=1;strokeColor=none;fillColor=none;" vertex="1" parent="1">
          <mxGeometry x="395" y="810" width="50" height="30" as="geometry" />
        </mxCell>
        <mxCell id="mweBj8knnKhivHX_sm4Q-34" value="Sw9" style="text;html=1;align=center;verticalAlign=middle;resizable=0;points=[];autosize=1;strokeColor=none;fillColor=none;" vertex="1" parent="1">
          <mxGeometry x="560" y="810" width="50" height="30" as="geometry" />
        </mxCell>
        <mxCell id="mweBj8knnKhivHX_sm4Q-35" value="Sw10" style="text;html=1;align=center;verticalAlign=middle;resizable=0;points=[];autosize=1;strokeColor=none;fillColor=none;" vertex="1" parent="1">
          <mxGeometry x="730" y="810" width="50" height="30" as="geometry" />
        </mxCell>
        <mxCell id="mweBj8knnKhivHX_sm4Q-36" value="SRV1" style="text;html=1;align=center;verticalAlign=middle;resizable=0;points=[];autosize=1;strokeColor=none;fillColor=none;" vertex="1" parent="1">
          <mxGeometry x="-260" y="613" width="50" height="30" as="geometry" />
        </mxCell>
        <mxCell id="mweBj8knnKhivHX_sm4Q-37" value="SRV2" style="text;html=1;align=center;verticalAlign=middle;resizable=0;points=[];autosize=1;strokeColor=none;fillColor=none;" vertex="1" parent="1">
          <mxGeometry x="-260" y="490" width="50" height="30" as="geometry" />
        </mxCell>
        <mxCell id="mweBj8knnKhivHX_sm4Q-38" value="SRV3" style="text;html=1;align=center;verticalAlign=middle;resizable=0;points=[];autosize=1;strokeColor=none;fillColor=none;" vertex="1" parent="1">
          <mxGeometry x="-70" y="418" width="50" height="30" as="geometry" />
        </mxCell>
        <mxCell id="mweBj8knnKhivHX_sm4Q-39" value="&lt;font style=&quot;font-size: 14px;&quot;&gt;PC1&lt;/font&gt;" style="text;html=1;align=center;verticalAlign=middle;resizable=0;points=[];autosize=1;strokeColor=none;fillColor=none;" vertex="1" parent="1">
          <mxGeometry x="-214.5" y="981.5" width="50" height="30" as="geometry" />
        </mxCell>
        <mxCell id="mweBj8knnKhivHX_sm4Q-40" value="&lt;font style=&quot;font-size: 14px;&quot;&gt;PC9&lt;/font&gt;" style="text;html=1;align=center;verticalAlign=middle;resizable=0;points=[];autosize=1;strokeColor=none;fillColor=none;" vertex="1" parent="1">
          <mxGeometry x="-180" y="1027" width="50" height="30" as="geometry" />
        </mxCell>
        <mxCell id="mweBj8knnKhivHX_sm4Q-41" value="&lt;font style=&quot;font-size: 14px;&quot;&gt;WAP1&lt;/font&gt;" style="text;html=1;align=center;verticalAlign=middle;resizable=0;points=[];autosize=1;strokeColor=none;fillColor=none;" vertex="1" parent="1">
          <mxGeometry x="-65" y="1037" width="60" height="30" as="geometry" />
        </mxCell>
        <mxCell id="mweBj8knnKhivHX_sm4Q-42" value="&lt;font style=&quot;font-size: 14px;&quot;&gt;WAP2&lt;/font&gt;" style="text;html=1;align=center;verticalAlign=middle;resizable=0;points=[];autosize=1;strokeColor=none;fillColor=none;" vertex="1" parent="1">
          <mxGeometry x="425" y="1002" width="60" height="30" as="geometry" />
        </mxCell>
        <mxCell id="mweBj8knnKhivHX_sm4Q-43" value="&lt;font style=&quot;font-size: 14px;&quot;&gt;WAP3&lt;/font&gt;" style="text;html=1;align=center;verticalAlign=middle;resizable=0;points=[];autosize=1;strokeColor=none;fillColor=none;" vertex="1" parent="1">
          <mxGeometry x="785" y="1037" width="60" height="30" as="geometry" />
        </mxCell>
        <mxCell id="mweBj8knnKhivHX_sm4Q-44" value="&lt;font style=&quot;font-size: 14px;&quot;&gt;PC1&lt;/font&gt;" style="text;html=1;align=center;verticalAlign=middle;resizable=0;points=[];autosize=1;strokeColor=none;fillColor=none;" vertex="1" parent="1">
          <mxGeometry x="67.25" y="1002" width="50" height="30" as="geometry" />
        </mxCell>
        <mxCell id="mweBj8knnKhivHX_sm4Q-45" value="&lt;font style=&quot;font-size: 14px;&quot;&gt;PC1&lt;/font&gt;" style="text;html=1;align=center;verticalAlign=middle;resizable=0;points=[];autosize=1;strokeColor=none;fillColor=none;" vertex="1" parent="1">
          <mxGeometry x="264.5" y="1005" width="50" height="30" as="geometry" />
        </mxCell>
        <mxCell id="mweBj8knnKhivHX_sm4Q-46" value="&lt;font style=&quot;font-size: 14px;&quot;&gt;PC1&lt;/font&gt;" style="text;html=1;align=center;verticalAlign=middle;resizable=0;points=[];autosize=1;strokeColor=none;fillColor=none;" vertex="1" parent="1">
          <mxGeometry x="537.25" y="1002" width="50" height="30" as="geometry" />
        </mxCell>
        <mxCell id="mweBj8knnKhivHX_sm4Q-47" value="&lt;font style=&quot;font-size: 14px;&quot;&gt;PC1&lt;/font&gt;" style="text;html=1;align=center;verticalAlign=middle;resizable=0;points=[];autosize=1;strokeColor=none;fillColor=none;" vertex="1" parent="1">
          <mxGeometry x="897.25" y="1018.5" width="50" height="30" as="geometry" />
        </mxCell>
        <mxCell id="mweBj8knnKhivHX_sm4Q-48" value="&lt;font style=&quot;font-size: 14px;&quot;&gt;PC9&lt;/font&gt;" style="text;html=1;align=center;verticalAlign=middle;resizable=0;points=[];autosize=1;strokeColor=none;fillColor=none;" vertex="1" parent="1">
          <mxGeometry x="157.25" y="1005" width="50" height="30" as="geometry" />
        </mxCell>
        <mxCell id="mweBj8knnKhivHX_sm4Q-49" value="&lt;font style=&quot;font-size: 14px;&quot;&gt;PC9&lt;/font&gt;" style="text;html=1;align=center;verticalAlign=middle;resizable=0;points=[];autosize=1;strokeColor=none;fillColor=none;" vertex="1" parent="1">
          <mxGeometry x="353.25" y="1005" width="50" height="30" as="geometry" />
        </mxCell>
        <mxCell id="mweBj8knnKhivHX_sm4Q-50" value="&lt;font style=&quot;font-size: 14px;&quot;&gt;PC9&lt;/font&gt;" style="text;html=1;align=center;verticalAlign=middle;resizable=0;points=[];autosize=1;strokeColor=none;fillColor=none;" vertex="1" parent="1">
          <mxGeometry x="637.25" y="1002" width="50" height="30" as="geometry" />
        </mxCell>
        <mxCell id="mweBj8knnKhivHX_sm4Q-51" value="&lt;font style=&quot;font-size: 14px;&quot;&gt;PC9&lt;/font&gt;" style="text;html=1;align=center;verticalAlign=middle;resizable=0;points=[];autosize=1;strokeColor=none;fillColor=none;" vertex="1" parent="1">
          <mxGeometry x="969" y="967" width="50" height="30" as="geometry" />
        </mxCell>
        <mxCell id="Topvc_GikGIYlu4mbmXo-1" value="&lt;font style=&quot;font-size: 26px;&quot;&gt;ТОПОЛОГИЯ L2&lt;/font&gt;" style="text;html=1;align=center;verticalAlign=middle;resizable=0;points=[];autosize=1;strokeColor=none;fillColor=none;" vertex="1" parent="1">
          <mxGeometry x="250" y="190" width="220" height="40" as="geometry" />
        </mxCell>
        <mxCell id="Topvc_GikGIYlu4mbmXo-11" value="" style="endArrow=none;html=1;rounded=0;shape=link;" edge="1" parent="1" source="SH7mHOmY0YoXLgwf_8YF-17" target="Topvc_GikGIYlu4mbmXo-9">
          <mxGeometry width="50" height="50" relative="1" as="geometry">
            <mxPoint x="336" y="575" as="sourcePoint" />
            <mxPoint x="20" y="573" as="targetPoint" />
          </mxGeometry>
        </mxCell>
        <mxCell id="Topvc_GikGIYlu4mbmXo-9" value="&lt;span style=&quot;font-family: &amp;quot;Times New Roman&amp;quot;; text-wrap: nowrap;&quot;&gt;&lt;font style=&quot;font-size: 15px;&quot;&gt;EtherChannel 802.1 Q trunk&lt;/font&gt;&lt;/span&gt;" style="rounded=0;whiteSpace=wrap;html=1;" vertex="1" parent="1">
          <mxGeometry x="87.25" y="563" width="190" height="22" as="geometry" />
        </mxCell>
        <mxCell id="Topvc_GikGIYlu4mbmXo-14" value="&lt;span style=&quot;font-family: &amp;quot;Times New Roman&amp;quot;; text-wrap: nowrap;&quot;&gt;&lt;font style=&quot;font-size: 15px;&quot;&gt;EtherChannel 802.1 Q trunk&lt;/font&gt;&lt;/span&gt;" style="rounded=0;whiteSpace=wrap;html=1;" vertex="1" parent="1">
          <mxGeometry x="457" y="596" width="190" height="22" as="geometry" />
        </mxCell>
        <mxCell id="Topvc_GikGIYlu4mbmXo-16" value="" style="endArrow=none;html=1;rounded=0;" edge="1" parent="1" target="Topvc_GikGIYlu4mbmXo-14">
          <mxGeometry width="50" height="50" relative="1" as="geometry">
            <mxPoint x="440" y="620" as="sourcePoint" />
            <mxPoint x="80" y="700" as="targetPoint" />
          </mxGeometry>
        </mxCell>
        <mxCell id="Topvc_GikGIYlu4mbmXo-17" value="" style="endArrow=none;html=1;rounded=0;" edge="1" parent="1" target="Topvc_GikGIYlu4mbmXo-14">
          <mxGeometry width="50" height="50" relative="1" as="geometry">
            <mxPoint x="320" y="610" as="sourcePoint" />
            <mxPoint x="20" y="680" as="targetPoint" />
          </mxGeometry>
        </mxCell>
        <mxCell id="Topvc_GikGIYlu4mbmXo-18" value="" style="endArrow=none;html=1;rounded=0;" edge="1" parent="1" target="Topvc_GikGIYlu4mbmXo-14">
          <mxGeometry width="50" height="50" relative="1" as="geometry">
            <mxPoint x="370" y="640" as="sourcePoint" />
            <mxPoint x="60" y="660" as="targetPoint" />
          </mxGeometry>
        </mxCell>
        <mxCell id="mweBj8knnKhivHX_sm4Q-11" value="" style="endArrow=none;html=1;rounded=0;shape=link;" edge="1" parent="1" source="mweBj8knnKhivHX_sm4Q-7" target="mweBj8knnKhivHX_sm4Q-6">
          <mxGeometry width="50" height="50" relative="1" as="geometry">
            <mxPoint x="-160" y="640" as="sourcePoint" />
            <mxPoint x="-110" y="590" as="targetPoint" />
          </mxGeometry>
        </mxCell>
        <mxCell id="Topvc_GikGIYlu4mbmXo-37" value="&lt;span style=&quot;text-wrap: nowrap;&quot;&gt;&lt;font style=&quot;font-size: 15px;&quot; face=&quot;Times New Roman&quot;&gt;Ethernet Vlan 111&lt;/font&gt;&lt;/span&gt;" style="rounded=0;whiteSpace=wrap;html=1;" vertex="1" parent="1">
          <mxGeometry x="-32.75" y="456" width="120" height="22" as="geometry" />
        </mxCell>
        <mxCell id="Topvc_GikGIYlu4mbmXo-38" value="" style="endArrow=none;html=1;rounded=0;" edge="1" parent="1" target="Topvc_GikGIYlu4mbmXo-37">
          <mxGeometry width="50" height="50" relative="1" as="geometry">
            <mxPoint x="-70" y="490" as="sourcePoint" />
            <mxPoint x="-250" y="740" as="targetPoint" />
          </mxGeometry>
        </mxCell>
        <mxCell id="Topvc_GikGIYlu4mbmXo-39" value="" style="endArrow=none;html=1;rounded=0;" edge="1" parent="1" target="Topvc_GikGIYlu4mbmXo-37">
          <mxGeometry width="50" height="50" relative="1" as="geometry">
            <mxPoint x="-120" y="540" as="sourcePoint" />
            <mxPoint x="-250" y="740" as="targetPoint" />
          </mxGeometry>
        </mxCell>
        <mxCell id="Topvc_GikGIYlu4mbmXo-40" value="" style="endArrow=none;html=1;rounded=0;" edge="1" parent="1" target="Topvc_GikGIYlu4mbmXo-37">
          <mxGeometry width="50" height="50" relative="1" as="geometry">
            <mxPoint x="-130" y="600" as="sourcePoint" />
            <mxPoint x="-90" y="720" as="targetPoint" />
          </mxGeometry>
        </mxCell>
        <mxCell id="Nj8tSS0Ux1PCsYFSFlfy-1" value="" style="endArrow=none;html=1;rounded=0;shape=link;" edge="1" parent="1" source="QaenVO4siS9VH7mCYYPl-4" target="mweBj8knnKhivHX_sm4Q-6">
          <mxGeometry width="50" height="50" relative="1" as="geometry">
            <mxPoint x="60" y="840" as="sourcePoint" />
            <mxPoint x="110" y="790" as="targetPoint" />
          </mxGeometry>
        </mxCell>
        <mxCell id="Topvc_GikGIYlu4mbmXo-31" value="&lt;span style=&quot;text-wrap: nowrap;&quot;&gt;&lt;font style=&quot;font-size: 15px;&quot; face=&quot;Times New Roman&quot;&gt;Ethernet Vlan 11&lt;/font&gt;&lt;/span&gt;" style="rounded=0;whiteSpace=wrap;html=1;" vertex="1" parent="1">
          <mxGeometry x="-125" y="900" width="120" height="22" as="geometry" />
        </mxCell>
        <mxCell id="Nj8tSS0Ux1PCsYFSFlfy-2" value="" style="endArrow=none;html=1;rounded=0;shape=link;" edge="1" parent="1" source="QaenVO4siS9VH7mCYYPl-16" target="mweBj8knnKhivHX_sm4Q-7">
          <mxGeometry width="50" height="50" relative="1" as="geometry">
            <mxPoint x="270" y="790" as="sourcePoint" />
            <mxPoint x="320" y="740" as="targetPoint" />
          </mxGeometry>
        </mxCell>
        <mxCell id="Topvc_GikGIYlu4mbmXo-32" value="&lt;span style=&quot;text-wrap: nowrap;&quot;&gt;&lt;font style=&quot;font-size: 15px;&quot; face=&quot;Times New Roman&quot;&gt;Ethernet Vlan 22&lt;/font&gt;&lt;/span&gt;" style="rounded=0;whiteSpace=wrap;html=1;" vertex="1" parent="1">
          <mxGeometry x="100" y="900" width="120" height="22" as="geometry" />
        </mxCell>
        <mxCell id="Nj8tSS0Ux1PCsYFSFlfy-4" value="" style="endArrow=none;html=1;rounded=0;shape=link;" edge="1" parent="1" source="QaenVO4siS9VH7mCYYPl-17" target="mweBj8knnKhivHX_sm4Q-7">
          <mxGeometry width="50" height="50" relative="1" as="geometry">
            <mxPoint x="500" y="830" as="sourcePoint" />
            <mxPoint x="550" y="780" as="targetPoint" />
          </mxGeometry>
        </mxCell>
        <mxCell id="Topvc_GikGIYlu4mbmXo-34" value="&lt;span style=&quot;text-wrap: nowrap;&quot;&gt;&lt;font style=&quot;font-size: 15px;&quot; face=&quot;Times New Roman&quot;&gt;Ethernet Vlan 33&lt;/font&gt;&lt;/span&gt;" style="rounded=0;whiteSpace=wrap;html=1;" vertex="1" parent="1">
          <mxGeometry x="280" y="926" width="120" height="22" as="geometry" />
        </mxCell>
        <mxCell id="Nj8tSS0Ux1PCsYFSFlfy-5" value="" style="endArrow=none;html=1;rounded=0;shape=link;" edge="1" parent="1" source="QaenVO4siS9VH7mCYYPl-18" target="mweBj8knnKhivHX_sm4Q-8">
          <mxGeometry width="50" height="50" relative="1" as="geometry">
            <mxPoint x="590" y="730" as="sourcePoint" />
            <mxPoint x="640" y="680" as="targetPoint" />
          </mxGeometry>
        </mxCell>
        <mxCell id="Topvc_GikGIYlu4mbmXo-35" value="&lt;span style=&quot;text-wrap: nowrap;&quot;&gt;&lt;font style=&quot;font-size: 15px;&quot; face=&quot;Times New Roman&quot;&gt;Ethernet Vlan 44&lt;/font&gt;&lt;/span&gt;" style="rounded=0;whiteSpace=wrap;html=1;" vertex="1" parent="1">
          <mxGeometry x="525" y="904" width="120" height="22" as="geometry" />
        </mxCell>
        <mxCell id="Nj8tSS0Ux1PCsYFSFlfy-6" value="" style="endArrow=none;html=1;rounded=0;shape=link;" edge="1" parent="1" source="QaenVO4siS9VH7mCYYPl-19" target="mweBj8knnKhivHX_sm4Q-8">
          <mxGeometry width="50" height="50" relative="1" as="geometry">
            <mxPoint x="740" y="700" as="sourcePoint" />
            <mxPoint x="790" y="650" as="targetPoint" />
          </mxGeometry>
        </mxCell>
        <mxCell id="Topvc_GikGIYlu4mbmXo-36" value="&lt;span style=&quot;text-wrap: nowrap;&quot;&gt;&lt;font style=&quot;font-size: 15px;&quot; face=&quot;Times New Roman&quot;&gt;Ethernet Vlan 55&lt;/font&gt;&lt;/span&gt;" style="rounded=0;whiteSpace=wrap;html=1;" vertex="1" parent="1">
          <mxGeometry x="810" y="910" width="120" height="22" as="geometry" />
        </mxCell>
        <mxCell id="ckgNaezF4-cy1GgSALDt-2" value="" style="endArrow=none;html=1;rounded=0;" edge="1" parent="1" target="Topvc_GikGIYlu4mbmXo-14">
          <mxGeometry width="50" height="50" relative="1" as="geometry">
            <mxPoint x="440" y="660" as="sourcePoint" />
            <mxPoint x="120" y="710" as="targetPoint" />
          </mxGeometry>
        </mxCell>
        <mxCell id="ckgNaezF4-cy1GgSALDt-3" value="" style="endArrow=none;html=1;rounded=0;" edge="1" parent="1" target="Topvc_GikGIYlu4mbmXo-14">
          <mxGeometry width="50" height="50" relative="1" as="geometry">
            <mxPoint x="410" y="690" as="sourcePoint" />
            <mxPoint x="210" y="740" as="targetPoint" />
          </mxGeometry>
        </mxCell>
        <mxCell id="ckgNaezF4-cy1GgSALDt-4" value="" style="endArrow=none;html=1;rounded=0;" edge="1" parent="1" target="Topvc_GikGIYlu4mbmXo-14">
          <mxGeometry width="50" height="50" relative="1" as="geometry">
            <mxPoint x="300" y="680" as="sourcePoint" />
            <mxPoint x="300" y="730" as="targetPoint" />
          </mxGeometry>
        </mxCell>
        <mxCell id="ckgNaezF4-cy1GgSALDt-5" value="&lt;span style=&quot;font-family: &amp;quot;Times New Roman&amp;quot;; text-wrap: nowrap;&quot;&gt;&lt;font style=&quot;font-size: 15px;&quot;&gt;EtherChannel 802.1 Q trunk&lt;/font&gt;&lt;/span&gt;" style="rounded=0;whiteSpace=wrap;html=1;" vertex="1" parent="1">
          <mxGeometry x="265" y="525" width="190" height="22" as="geometry" />
        </mxCell>
        <mxCell id="ckgNaezF4-cy1GgSALDt-6" value="&lt;span style=&quot;font-family: &amp;quot;Times New Roman&amp;quot;; text-wrap: nowrap;&quot;&gt;&lt;font style=&quot;font-size: 15px;&quot;&gt;EtherChannel 802.1 Q trunk&lt;/font&gt;&lt;/span&gt;" style="rounded=0;whiteSpace=wrap;html=1;" vertex="1" parent="1">
          <mxGeometry x="50" y="720" width="190" height="22" as="geometry" />
        </mxCell>
        <mxCell id="ckgNaezF4-cy1GgSALDt-7" value="&lt;span style=&quot;font-family: &amp;quot;Times New Roman&amp;quot;; text-wrap: nowrap;&quot;&gt;&lt;font style=&quot;font-size: 15px;&quot;&gt;EtherChannel 802.1 Q trunk&lt;/font&gt;&lt;/span&gt;" style="rounded=0;whiteSpace=wrap;html=1;" vertex="1" parent="1">
          <mxGeometry x="210" y="760" width="190" height="22" as="geometry" />
        </mxCell>
        <mxCell id="ckgNaezF4-cy1GgSALDt-8" value="&lt;span style=&quot;font-family: &amp;quot;Times New Roman&amp;quot;; text-wrap: nowrap;&quot;&gt;&lt;font style=&quot;font-size: 15px;&quot;&gt;EtherChannel 802.1 Q trunk&lt;/font&gt;&lt;/span&gt;" style="rounded=0;whiteSpace=wrap;html=1;" vertex="1" parent="1">
          <mxGeometry x="457" y="760" width="190" height="22" as="geometry" />
        </mxCell>
        <mxCell id="hSu7WzeNui3IcwcH_aoJ-1" value="&lt;span style=&quot;font-family: &amp;quot;Times New Roman&amp;quot;; text-wrap: nowrap;&quot;&gt;&lt;font style=&quot;font-size: 15px;&quot;&gt;EtherChannel 802.1 Q trunk&lt;/font&gt;&lt;/span&gt;" style="rounded=0;whiteSpace=wrap;html=1;" vertex="1" parent="1">
          <mxGeometry x="264.5" y="360" width="190" height="22" as="geometry" />
        </mxCell>
      </root>
    </mxGraphModel>
  </diagram>
</mxfile>
